<svg width="1172" height="179" viewBox="0 0 1172 179" fill="none" xmlns="http://www.w3.org/2000/svg">
<path d="M50.1986 131L32.7486 99.3271H27.8483V131H7.41026V47.0967H41.7126C48.3261 47.0967 53.9435 48.252 58.565 50.5628C63.2661 52.8735 66.7721 56.0607 69.0828 60.1244C71.3935 64.1084 72.5489 68.5705 72.5489 73.5107C72.5489 79.0883 70.9553 84.0683 67.7681 88.4507C64.6605 92.8332 60.0391 95.9407 53.9037 97.7733L73.266 131H50.1986ZM27.8483 84.8651H40.5174C44.2624 84.8651 47.0512 83.9488 48.8838 82.1162C50.7962 80.2835 51.7523 77.6939 51.7523 74.3473C51.7523 71.1601 50.7962 68.6502 48.8838 66.8176C47.0512 64.9849 44.2624 64.0686 40.5174 64.0686H27.8483V84.8651ZM115.737 131.956C109.203 131.956 103.307 130.562 98.0478 127.773C92.8686 124.984 88.7651 121 85.7372 115.821C82.789 110.642 81.3149 104.586 81.3149 97.6538C81.3149 90.8013 82.8289 84.7854 85.8567 79.6062C88.8846 74.3473 93.0279 70.3235 98.2868 67.5347C103.546 64.7459 109.442 63.3515 115.976 63.3515C122.51 63.3515 128.406 64.7459 133.665 67.5347C138.924 70.3235 143.067 74.3473 146.095 79.6062C149.123 84.7854 150.637 90.8013 150.637 97.6538C150.637 104.506 149.083 110.562 145.975 115.821C142.948 121 138.764 124.984 133.426 127.773C128.167 130.562 122.271 131.956 115.737 131.956ZM115.737 114.267C119.641 114.267 122.948 112.833 125.657 109.964C128.446 107.096 129.84 102.992 129.84 97.6538C129.84 92.3152 128.486 88.2117 125.777 85.3432C123.147 82.4747 119.88 81.0405 115.976 81.0405C111.992 81.0405 108.685 82.4747 106.056 85.3432C103.426 88.132 102.111 92.2356 102.111 97.6538C102.111 102.992 103.386 107.096 105.936 109.964C108.566 112.833 111.832 114.267 115.737 114.267ZM181.917 42.5549V131H161.48V42.5549H181.917ZM230.194 81.2795H219.199V131H198.761V81.2795H191.35V64.3076H198.761V62.3953C198.761 54.1882 201.111 47.9732 205.812 43.7501C210.513 39.4474 217.406 37.296 226.489 37.296C228.003 37.296 229.119 37.3359 229.836 37.4155V54.746C225.932 54.507 223.183 55.0647 221.589 56.4193C219.995 57.7738 219.199 60.2041 219.199 63.71V64.3076H230.194V81.2795ZM292.028 116.179H260.714L255.694 131H234.3L264.658 47.0967H288.323L318.682 131H297.048L292.028 116.179ZM286.77 100.403L276.371 69.686L266.093 100.403H286.77ZM348.359 42.5549V131H327.921V42.5549H348.359ZM426.038 96.5781C426.038 98.4905 425.918 100.482 425.679 102.554H379.425C379.744 106.698 381.058 109.885 383.369 112.116C385.76 114.267 388.668 115.343 392.094 115.343C397.194 115.343 400.739 113.191 402.731 108.889H424.484C423.369 113.271 421.337 117.215 418.389 120.721C415.52 124.227 411.895 126.976 407.512 128.968C403.13 130.96 398.229 131.956 392.811 131.956C386.277 131.956 380.461 130.562 375.361 127.773C370.262 124.984 366.278 121 363.409 115.821C360.541 110.642 359.106 104.586 359.106 97.6538C359.106 90.7216 360.501 84.6659 363.29 79.4867C366.158 74.3075 370.142 70.3235 375.242 67.5347C380.341 64.7459 386.198 63.3515 392.811 63.3515C399.265 63.3515 405.002 64.706 410.022 67.4152C415.042 70.1243 418.946 73.9888 421.735 79.0086C424.604 84.0285 426.038 89.885 426.038 96.5781ZM405.122 91.1997C405.122 87.6938 403.927 84.905 401.536 82.8333C399.146 80.7616 396.158 79.7258 392.572 79.7258C389.146 79.7258 386.238 80.7218 383.847 82.7138C381.536 84.7058 380.102 87.5344 379.544 91.1997H405.122ZM463.951 131.956C458.134 131.956 452.955 130.96 448.413 128.968C443.872 126.976 440.286 124.267 437.657 120.841C435.027 117.335 433.553 113.431 433.234 109.128H453.433C453.672 111.438 454.748 113.311 456.66 114.745C458.573 116.179 460.923 116.897 463.712 116.897C466.262 116.897 468.214 116.419 469.569 115.462C471.003 114.427 471.72 113.112 471.72 111.518C471.72 109.606 470.724 108.211 468.732 107.335C466.74 106.379 463.513 105.343 459.051 104.227C454.27 103.112 450.286 101.957 447.099 100.761C443.911 99.4865 441.163 97.5343 438.852 94.9048C436.541 92.1957 435.386 88.5703 435.386 84.0285C435.386 80.2038 436.422 76.7377 438.493 73.6302C440.645 70.443 443.752 67.9331 447.816 66.1004C451.959 64.2678 456.86 63.3515 462.517 63.3515C470.883 63.3515 477.457 65.4231 482.238 69.5665C487.098 73.7099 489.887 79.2078 490.604 86.0603H471.72C471.401 83.7496 470.365 81.917 468.612 80.5624C466.939 79.2078 464.708 78.5305 461.919 78.5305C459.529 78.5305 457.696 79.0086 456.421 79.9648C455.146 80.8413 454.509 82.0763 454.509 83.6699C454.509 85.5823 455.505 87.0165 457.497 87.9727C459.569 88.9288 462.756 89.885 467.059 90.8411C471.999 92.116 476.023 93.3909 479.13 94.6658C482.238 95.861 484.947 97.853 487.258 100.642C489.648 103.351 490.883 107.016 490.963 111.638C490.963 115.542 489.847 119.048 487.616 122.155C485.465 125.183 482.317 127.574 478.174 129.327C474.11 131.08 469.369 131.956 463.951 131.956ZM533.825 131.956C527.291 131.956 521.395 130.562 516.136 127.773C510.956 124.984 506.853 121 503.825 115.821C500.877 110.642 499.403 104.586 499.403 97.6538C499.403 90.8013 500.917 84.7854 503.945 79.6062C506.972 74.3473 511.116 70.3235 516.375 67.5347C521.634 64.7459 527.53 63.3515 534.064 63.3515C540.598 63.3515 546.494 64.7459 551.753 67.5347C557.012 70.3235 561.155 74.3473 564.183 79.6062C567.211 84.7854 568.725 90.8013 568.725 97.6538C568.725 104.506 567.171 110.562 564.063 115.821C561.036 121 556.852 124.984 551.514 127.773C546.255 130.562 540.359 131.956 533.825 131.956ZM533.825 114.267C537.729 114.267 541.036 112.833 543.745 109.964C546.534 107.096 547.928 102.992 547.928 97.6538C547.928 92.3152 546.574 88.2117 543.864 85.3432C541.235 82.4747 537.968 81.0405 534.064 81.0405C530.08 81.0405 526.773 82.4747 524.144 85.3432C521.514 88.132 520.199 92.2356 520.199 97.6538C520.199 102.992 521.474 107.096 524.024 109.964C526.653 112.833 529.92 114.267 533.825 114.267ZM620.204 63.5905C628.013 63.5905 634.228 66.1403 638.85 71.2398C643.551 76.2597 645.901 83.1918 645.901 92.0364V131H625.583V94.7853C625.583 90.3232 624.427 86.8571 622.117 84.387C619.806 81.917 616.698 80.6819 612.794 80.6819C608.89 80.6819 605.782 81.917 603.472 84.387C601.161 86.8571 600.005 90.3232 600.005 94.7853V131H579.567V64.3076H600.005V73.1521C602.077 70.204 604.866 67.8932 608.372 66.2199C611.878 64.467 615.822 63.5905 620.204 63.5905ZM715.8 73.6302C714.286 70.8414 712.095 68.7299 709.227 67.2956C706.438 65.7817 703.131 65.0247 699.306 65.0247C692.693 65.0247 687.394 67.216 683.41 71.5984C679.426 75.9011 677.434 81.6779 677.434 88.9288C677.434 96.6578 679.506 102.714 683.649 107.096C687.872 111.399 693.649 113.55 700.98 113.55C705.999 113.55 710.223 112.275 713.649 109.725C717.155 107.176 719.704 103.51 721.298 98.7295H695.362V83.6699H739.824V102.674C738.31 107.773 735.72 112.514 732.055 116.897C728.469 121.279 723.888 124.825 718.31 127.534C712.732 130.243 706.438 131.598 699.426 131.598C691.139 131.598 683.729 129.805 677.195 126.219C670.741 122.554 665.681 117.494 662.016 111.04C658.43 104.586 656.638 97.2156 656.638 88.9288C656.638 80.6421 658.43 73.2717 662.016 66.8176C665.681 60.2838 670.741 55.2241 677.195 51.6385C683.649 47.9732 691.02 46.1405 699.306 46.1405C709.346 46.1405 717.792 48.5708 724.645 53.4313C731.577 58.2918 736.158 65.0247 738.389 73.6302H715.8ZM747.081 97.5343C747.081 90.6818 748.356 84.6659 750.905 79.4867C753.535 74.3075 757.081 70.3235 761.543 67.5347C766.005 64.7459 770.985 63.3515 776.483 63.3515C781.184 63.3515 785.288 64.3076 788.793 66.2199C792.379 68.1323 795.128 70.6422 797.04 73.7497V64.3076H817.478V131H797.04V121.558C795.048 124.665 792.26 127.175 788.674 129.088C785.168 131 781.064 131.956 776.363 131.956C770.945 131.956 766.005 130.562 761.543 127.773C757.081 124.904 753.535 120.881 750.905 115.701C748.356 110.442 747.081 104.387 747.081 97.5343ZM797.04 97.6538C797.04 92.5543 795.606 88.5304 792.738 85.5823C789.949 82.6341 786.523 81.16 782.459 81.16C778.395 81.16 774.929 82.6341 772.061 85.5823C769.272 88.4507 767.877 92.4348 767.877 97.5343C767.877 102.634 769.272 106.698 772.061 109.725C774.929 112.674 778.395 114.148 782.459 114.148C786.523 114.148 789.949 112.674 792.738 109.725C795.606 106.777 797.04 102.753 797.04 97.6538ZM852.702 42.5549V131H832.264V42.5549H852.702ZM897.513 111.877L911.975 64.3076H933.728L910.063 131H884.844L861.179 64.3076H883.051L897.513 111.877ZM1005.2 96.5781C1005.2 98.4905 1005.08 100.482 1004.84 102.554H958.585C958.904 106.698 960.219 109.885 962.529 112.116C964.92 114.267 967.828 115.343 971.254 115.343C976.354 115.343 979.9 113.191 981.892 108.889H1003.64C1002.53 113.271 1000.5 117.215 997.549 120.721C994.68 124.227 991.055 126.976 986.673 128.968C982.29 130.96 977.39 131.956 971.972 131.956C965.438 131.956 959.621 130.562 954.522 127.773C949.422 124.984 945.438 121 942.57 115.821C939.701 110.642 938.267 104.586 938.267 97.6538C938.267 90.7216 939.661 84.6659 942.45 79.4867C945.319 74.3075 949.303 70.3235 954.402 67.5347C959.502 64.7459 965.358 63.3515 971.972 63.3515C978.426 63.3515 984.163 64.706 989.182 67.4152C994.202 70.1243 998.107 73.9888 1000.9 79.0086C1003.76 84.0285 1005.2 89.885 1005.2 96.5781ZM984.282 91.1997C984.282 87.6938 983.087 84.905 980.697 82.8333C978.306 80.7616 975.318 79.7258 971.733 79.7258C968.306 79.7258 965.398 80.7218 963.008 82.7138C960.697 84.7058 959.263 87.5344 958.705 91.1997H984.282ZM1035.1 114.148H1064.03V131H1012.28V114.745L1040 81.16H1012.51V64.3076H1063.43V80.5624L1035.1 114.148Z" fill="#0F0F0D"/>
<path d="M1120 22.75C1111.64 22.75 1103.48 25.2279 1096.53 29.8704C1089.58 34.5129 1084.16 41.1114 1080.97 48.8316C1077.77 56.5518 1076.93 65.0469 1078.56 73.2426C1080.19 81.4383 1084.22 88.9665 1090.12 94.8753C1096.03 100.784 1103.56 104.808 1111.76 106.438C1119.95 108.068 1128.45 107.232 1136.17 104.034C1143.89 100.836 1150.49 95.4208 1155.13 88.4728C1159.77 81.5249 1162.25 73.3563 1162.25 65C1162.24 53.7982 1157.78 43.0587 1149.86 35.1378C1141.94 27.217 1131.2 22.7618 1120 22.75ZM1120 100.75C1112.93 100.75 1106.02 98.6533 1100.14 94.725C1094.26 90.7968 1089.68 85.2134 1086.97 78.6809C1084.27 72.1485 1083.56 64.9603 1084.94 58.0255C1086.32 51.0907 1089.72 44.7207 1094.72 39.7209C1099.72 34.7212 1106.09 31.3163 1113.03 29.9369C1119.96 28.5575 1127.15 29.2655 1133.68 31.9713C1140.21 34.6771 1145.8 39.2593 1149.73 45.1384C1153.65 51.0174 1155.75 57.9293 1155.75 65C1155.74 74.4782 1151.97 83.5651 1145.27 90.2672C1138.57 96.9693 1129.48 100.739 1120 100.75ZM1113.5 55.25C1113.5 56.1119 1113.16 56.9386 1112.55 57.5481C1111.94 58.1576 1111.11 58.5 1110.25 58.5H1107V74.75C1107 75.6119 1106.66 76.4386 1106.05 77.0481C1105.44 77.6576 1104.61 78 1103.75 78C1102.89 78 1102.06 77.6576 1101.45 77.0481C1100.84 76.4386 1100.5 75.6119 1100.5 74.75V58.5H1097.25C1096.39 58.5 1095.56 58.1576 1094.95 57.5481C1094.34 56.9386 1094 56.1119 1094 55.25C1094 54.388 1094.34 53.5614 1094.95 52.9519C1095.56 52.3424 1096.39 52 1097.25 52H1110.25C1111.11 52 1111.94 52.3424 1112.55 52.9519C1113.16 53.5614 1113.5 54.388 1113.5 55.25ZM1146 55.25V74.75C1146 75.6119 1145.66 76.4386 1145.05 77.0481C1144.44 77.6576 1143.61 78 1142.75 78C1141.89 78 1141.06 77.6576 1140.45 77.0481C1139.84 76.4386 1139.5 75.6119 1139.5 74.75V63.8991L1133.81 70.3991C1133.51 70.7449 1133.13 71.0218 1132.71 71.2116C1132.29 71.4013 1131.84 71.4994 1131.37 71.4994C1130.91 71.4994 1130.46 71.4013 1130.04 71.2116C1129.62 71.0218 1129.24 70.7449 1128.94 70.3991L1123.25 63.8991V74.75C1123.25 75.6119 1122.91 76.4386 1122.3 77.0481C1121.69 77.6576 1120.86 78 1120 78C1119.14 78 1118.31 77.6576 1117.7 77.0481C1117.09 76.4386 1116.75 75.6119 1116.75 74.75V55.25C1116.75 54.5906 1116.95 53.9473 1117.33 53.4056C1117.71 52.8639 1118.24 52.4494 1118.86 52.2171C1119.47 51.9848 1120.15 51.9457 1120.79 52.105C1121.43 52.2643 1122 52.6145 1122.44 53.1091L1131.37 63.3141L1140.31 53.1091C1140.75 52.6145 1141.32 52.2643 1141.96 52.105C1142.6 51.9457 1143.28 51.9848 1143.89 52.2171C1144.51 52.4494 1145.04 52.8639 1145.42 53.4056C1145.8 53.9473 1146 54.5906 1146 55.25Z" fill="#0F0F0D"/>
</svg>
