<svg width="50" height="50" viewBox="0 0 50 50" fill="none" xmlns="http://www.w3.org/2000/svg">
<path d="M0 0C13.8071 0 25 11.1929 25 25H0V0Z" fill="black"/>
<path d="M50 50C36.1929 50 25 38.8071 25 25H50V50Z" fill="black"/>
<path d="M47.75 12.5C47.75 19.4036 42.1536 25 35.25 25C28.3464 25 22.75 19.4036 22.75 12.5L22.75 0L47.75 0V12.5Z" fill="black"/>
<path d="M2.25 37.5C2.25 30.5964 7.84644 25 14.75 25C21.6536 25 27.25 30.5964 27.25 37.5L27.25 50H2.25L2.25 37.5Z" fill="black"/>
<path d="M12.0505 19.521L9.76026 15.3642H9.11712V19.521H6.43477V8.50926H10.9367C11.8047 8.50926 12.542 8.6609 13.1485 8.96416C13.7655 9.26743 14.2256 9.68573 14.5289 10.2191C14.8322 10.7419 14.9838 11.3276 14.9838 11.9759C14.9838 12.708 14.7746 13.3616 14.3563 13.9367C13.9485 14.5119 13.342 14.9197 12.5367 15.1602L15.0779 19.521H12.0505ZM9.11712 13.4661H10.7799C11.2714 13.4661 11.6374 13.3459 11.8779 13.1053C12.1289 12.8648 12.2544 12.5249 12.2544 12.0857C12.2544 11.6674 12.1289 11.338 11.8779 11.0975C11.6374 10.857 11.2714 10.7367 10.7799 10.7367H9.11712V13.4661Z" fill="white"/>
<path d="M42.7014 38.5843H38.5915L37.9327 40.5294H35.1249L39.1092 29.5177H42.2151L46.1994 40.5294H43.3602L42.7014 38.5843ZM42.0112 36.5137L40.6465 32.4824L39.2974 36.5137H42.0112Z" fill="white"/>
</svg>
